<svg xmlns="http://www.w3.org/2000/svg" viewBox="0 0 24 24" width="24" height="24">
  <g transform="translate(8.5 8.5)">
    <!-- Google "G" logo -->
    <path d="M 0 4 C 0 1.791 1.791 0 4 0 C 5.139 0 6.179 0.542 6.884 1.373 L 5.702 2.487 C 5.305 2.048 4.704 1.724 4 1.724 C 2.564 1.724 1.401 2.887 1.401 4.323 C 1.401 5.759 2.564 6.922 4 6.922 C 5.597 6.922 6.668 5.994 6.889 4.885 L 4 4.885 L 4 3.252 L 8.656 3.252 C 8.694 3.439 8.714 3.634 8.714 3.833 C 8.714 5.948 7.804 7.498 6.334 8.409 C 5.141 9.128 3.582 9.128 2.389 8.409 C 1.195 7.69 0.5 6.269 0.5 4.714 C 0.5 4.542 0.507 4.372 0.519 4.202" fill="#4285F4"/>
    <!-- Red arc -->
    <path d="M 4 0 C 5.139 0 6.179 0.542 6.884 1.373 C 7.389 0.853 7.792 0.227 8.048 -0.5" fill="none" stroke="#EA4335" stroke-width="0.8"/>
    <!-- Yellow arc -->
    <path d="M 8.048 -0.5 L 8.048 3.252 C 8.694 1.502 8.048 -0.5 8.048 -0.5" fill="none" stroke="#FBBC04" stroke-width="0.8"/>
    <!-- Blue arc -->
    <path d="M 6.334 8.409 C 7.804 7.498 8.714 5.948 8.714 3.833 L 8.048 3.252" fill="none" stroke="#4285F4" stroke-width="0.8"/>
    <!-- Green arc -->
    <path d="M 6.334 8.409 L 2.389 8.409 C 1.195 7.69 0.5 6.269 0.5 4.714 L 1.401 4.323" fill="none" stroke="#34A853" stroke-width="0.8"/>
  </g>
</svg>
